Coordinates
version=1
nRows=4
nColumns=107
inDegrees=yes

Units are S.I. units (second, meters, Newtons, ...)
If the header above contains a line with 'inDegrees', this indicates whether rotational values are in degrees (yes) or radians (no).

endheader
time	sternoclavicular_r2	sternoclavicular_r3	unrotscap_r3	unrotscap_r2	acromioclavicular_r2	acromioclavicular_r3	acromioclavicular_r1	unrothum_r1	unrothum_r3	unrothum_r2	elv_angle	shoulder_elv	shoulder1_r2	shoulder_rot	elbow_flexion	pro_sup	deviation	flexion	proximal_distal_r1	proximal_distal_r3	cmc_flexion	cmc_abduction	mp_flexion	ip_flexion	mcp2_flexion	mcp2_abduction	pm2_flexion	md2_flexion	mcp3_flexion	mcp3_abduction	pm3_flexion	md3_flexion	mcp4_flexion	mcp4_abduction	pm4_flexion	md4_flexion	mcp5_flexion	mcp5_abduction	pm5_flexion	md5_flexion	bicpt_tx	bicpt_ty	bicpt_tz	bicpt2_tx	bicpt2_ty	bicpt2_tz	ptpt_tx	ptpt_ty	ptpt_tz	FCUpt_tx	FCUpt_ty	FCUpt_tz	EDCpt_tx	EDCpt_ty	EDCpt_tz	APLpt_tx	APLpt_ty	APLpt_tz	FPLpt_tx	FPLpt_ty	FPLpt_tz	FPLpt2_tx	FPLpt2_ty	FPLpt2_tz	PEC1pt2_tx	PEC1pt2_ty	PEC1pt2_tz	PEC1pt3_tx	PEC1pt3_ty	PEC1pt3_tz	PEC2pt2_tx	PEC2pt2_ty	PEC2pt2_tz	PEC2pt3_tx	PEC2pt3_ty	PEC2pt3_tz	PEC3pt2_tx	PEC3pt2_ty	PEC3pt2_tz	PEC3pt3_tx	PEC3pt3_ty	PEC3pt3_tz	DELT2pt2a_tx	DELT2pt2a_ty	DELT2pt2a_tz	DELT2pt2_tx	DELT2pt2_ty	DELT2pt2_tz	LAT1pt2_tx	LAT1pt2_ty	LAT1pt2_tz	LAT1pt3_tx	LAT1pt3_ty	LAT1pt3_tz	LAT2pt2_tx	LAT2pt2_ty	LAT2pt2_tz	LAT2pt3_tx	LAT2pt3_ty	LAT2pt3_tz	LAT3pt2_tx	LAT3pt2_ty	LAT3pt2_tz	LAT3pt3_tx	LAT3pt3_ty	LAT3pt3_tz
      1.53333333	     -0.33412993	      0.14152167	     -0.14152167	      0.33412993	     -0.06765451	      0.54675999	      0.24576485	     -0.24576485	     -0.54675999	      0.06765451	     97.43754730	     79.10823178	     -1.70060602	    -10.04411581	     27.34662349	     20.31347535	      0.01854450	      0.26879190	      0.02488602	      0.13439595	     12.79086298	    -13.93005202	    -15.42847300	    -15.57961750	     27.89164356	      6.60740892	     30.16416367	     10.87572346	     22.01197116	      2.68142224	     28.07039875	     25.92698046	     14.65832467	     -4.44904527	     38.28936301	     27.76665663	     14.18262122	    -11.67789844	     21.77905485	      5.12739401	      0.00080454	     -0.03073434	     -0.00480486	      0.01609431	     -0.01762884	     -0.00929990	      0.00604906	     -0.06587053	     -0.00168636	      0.00585803	     -0.18384957	     -0.00010074	     -0.00243761	      0.00063923	      0.00018273	     -0.00033551	     -0.00013421	     -0.00067103	     -0.00042946	     -0.00128838	     -0.00072471	      0.00002829	     -0.00022888	     -0.00027466	      0.00259299	      0.00909745	      0.00632866	     -0.00848217	      0.02048026	     -0.01942548	      0.00259299	      0.00909745	      0.00632866	      0.00057134	      0.01898599	     -0.00997644	      0.00405769	      0.00505898	      0.01622961	      0.00000000	      0.00837406	      0.00000000	     -0.00742739	     -0.03432421	     -0.00690793	      0.00736829	     -0.00014771	     -0.00068485	     -0.00092293	      0.01547007	     -0.00632866	      0.00254905	      0.02232612	     -0.01845860	     -0.00619682	      0.01340446	     -0.00566943	     -0.01292102	      0.02830319	     -0.03168727	     -0.02425988	      0.01498663	     -0.00760319	     -0.01608535	      0.03269810	     -0.03959810
      1.56666667	     -0.33456460	      0.14170577	     -0.14170577	      0.33456460	     -0.06774253	      0.54747126	      0.24608456	     -0.24608456	     -0.54747126	      0.06774253	     97.38195605	     79.21114191	     -1.69963577	     -9.63701478	     27.42326182	     20.47972787	      0.03778624	      0.37250784	      0.05011320	      0.18625392	     13.28110047	    -14.63473944	    -14.56778981	    -13.11109878	     27.57612741	      5.97982437	     27.80090490	      6.93308428	     23.25130703	      2.42552346	     23.11908080	     22.89776142	     15.94661346	     -4.16390564	     32.77230448	     25.94385125	     13.57973087	    -11.29399875	     20.65960704	      5.13897977	      0.00080708	     -0.03074312	     -0.00480628	      0.01610208	     -0.01764966	     -0.00928672	      0.00603678	     -0.06587847	     -0.00169975	      0.00587376	     -0.18384703	     -0.00010437	     -0.00245756	      0.00064498	      0.00018330	     -0.00049733	     -0.00019893	     -0.00099467	     -0.00063659	     -0.00190976	     -0.00107424	      0.00002735	     -0.00023403	     -0.00028084	      0.00259637	      0.00910929	      0.00633690	     -0.00849320	      0.02050690	     -0.01945075	      0.00259637	      0.00910929	      0.00633690	      0.00057208	      0.01901069	     -0.00998941	      0.00406148	      0.00506556	      0.01623841	      0.00000000	      0.00839603	      0.00000000	     -0.00743705	     -0.03436886	     -0.00692615	      0.00707806	     -0.00013709	     -0.00061649	     -0.00092413	      0.01549019	     -0.00633690	      0.00255236	      0.02235516	     -0.01848262	     -0.00620488	      0.01342190	     -0.00567680	     -0.01293783	      0.02834001	     -0.03172849	     -0.02429144	      0.01500612	     -0.00761308	     -0.01610628	      0.03274063	     -0.03964961
      1.60000000	     -0.33439280	      0.14163301	     -0.14163301	      0.33439280	     -0.06770774	      0.54719014	      0.24595820	     -0.24595820	     -0.54719014	      0.06770774	     97.44576112	     79.17046787	     -1.70074937	     -9.90327486	     27.40000927	     21.16789266	      0.04069360	      0.44864174	      0.05387167	      0.22432087	     14.46492266	    -16.01214576	    -14.55291349	    -11.74528874	     26.66696813	      5.27468001	     26.07390161	      2.45313715	     23.08922076	      2.10216662	     19.97513075	     20.88554752	     15.87553684	     -4.01181082	     28.85659998	     25.37949518	     12.47712041	    -11.03262439	     19.52760006	      5.13030080	      0.00080631	     -0.03074046	     -0.00480585	      0.01613355	     -0.01764335	     -0.00923176	      0.00598593	     -0.06591135	     -0.00175519	      0.00593897	     -0.18383647	     -0.00011919	     -0.00254014	      0.00066890	      0.00018551	     -0.00062758	     -0.00025103	     -0.00125516	     -0.00080330	     -0.00240990	     -0.00135557	      0.00002493	     -0.00024538	     -0.00029446	      0.00259503	      0.00910461	      0.00633364	     -0.00848884	      0.02049637	     -0.01944076	      0.00259503	      0.00910461	      0.00633364	      0.00057179	      0.01900093	     -0.00998428	      0.00405998	      0.00506296	      0.01623494	      0.00000000	      0.00838734	      0.00000000	     -0.00743323	     -0.03435122	     -0.00691895	      0.00726813	     -0.00014402	     -0.00066084	     -0.00092366	      0.01548224	     -0.00633364	      0.00255105	      0.02234368	     -0.01847312	     -0.00620169	      0.01341501	     -0.00567389	     -0.01293119	      0.02832546	     -0.03171220	     -0.02427896	      0.01499842	     -0.00760917	     -0.01609801	      0.03272382	     -0.03962925
      1.63333333	     -0.33478647	      0.14179975	     -0.14179975	      0.33478647	     -0.06778745	      0.54783433	      0.24624776	     -0.24624776	     -0.54783433	      0.06778745	     97.44408989	     79.26367352	     -1.70072021	     -9.50237418	     27.23480941	     21.07680966	      0.02921517	      0.47605190	      0.03895081	      0.23802595	     15.93580403	    -17.78680362	    -14.41371469	    -11.69215230	     25.11158943	      4.57960459	     24.53683578	      1.50977244	     22.28670871	      1.72477976	     18.05373282	     19.97611696	     15.04258623	     -4.29425304	     27.17709507	     24.66826211	     11.45993146	    -11.17776660	     18.84443169	      5.04717639	      0.00080084	     -0.03072153	     -0.00480280	      0.01612945	     -0.01759847	     -0.00923907	      0.00599266	     -0.06590700	     -0.00174785	      0.00593033	     -0.18383787	     -0.00011725	     -0.00252921	      0.00066573	      0.00018523	     -0.00067685	     -0.00027074	     -0.00135371	     -0.00086637	     -0.00259911	     -0.00146200	      0.00002166	     -0.00025731	     -0.00030878	      0.00259809	      0.00911533	      0.00634110	     -0.00849883	      0.02052050	     -0.01946365	      0.00259809	      0.00911533	      0.00634110	      0.00057246	      0.01902330	     -0.00999604	      0.00406341	      0.00506892	      0.01624289	      0.00000000	      0.00840726	      0.00000000	     -0.00744198	     -0.03439166	     -0.00693547	      0.00698159	     -0.00013359	     -0.00059460	     -0.00092474	      0.01550046	     -0.00634110	      0.00255405	      0.02236999	     -0.01849487	     -0.00620899	      0.01343080	     -0.00568057	     -0.01294641	      0.02835880	     -0.03174953	     -0.02430755	      0.01501608	     -0.00761813	     -0.01611696	      0.03276235	     -0.03967591
